<svg width="29" height="36" viewBox="0 0 29 36" fill="none" xmlns="http://www.w3.org/2000/svg">
<path d="M26 13.7C26 18 23.8833 21.3083 20.6633 23.4867C19.9133 23.9933 19.5383 24.2467 19.3533 24.5367C19.17 24.8233 19.105 25.2033 18.98 25.96L18.88 26.5483C18.66 27.8783 18.5483 28.5433 18.0817 28.9383C17.615 29.3333 16.9417 29.3333 15.5933 29.3333H11.24C9.89167 29.3333 9.21833 29.3333 8.75167 28.9383C8.285 28.5433 8.175 27.8783 7.95167 26.5483L7.855 25.96C7.72833 25.205 7.66667 24.8267 7.48333 24.54C7.3 24.2533 6.92333 23.9967 6.17167 23.4833C2.98667 21.305 1 17.9983 1 13.7C1 6.68834 6.59667 1.00001 13.5 1.00001C14.3398 0.999118 15.1775 1.084 16 1.25334" stroke="#F9BAB7" stroke-width="1.5" stroke-linecap="round" stroke-linejoin="round"/>
<path d="M16.8337 29.3333V31C16.8337 32.5717 16.8337 33.3567 16.3453 33.845C15.857 34.3333 15.072 34.3333 13.5003 34.3333C11.9287 34.3333 11.1437 34.3333 10.6553 33.845C10.167 33.3567 10.167 32.5717 10.167 31V29.3333M21.8337 1L22.2637 2.16167C22.827 3.685 23.1087 4.44667 23.6637 5.00167C24.2203 5.55833 24.982 5.84 26.5053 6.40333L27.667 6.83333L26.5053 7.26333C24.982 7.82667 24.2203 8.10833 23.6653 8.66333C23.1087 9.22 22.827 9.98167 22.2637 11.505L21.8337 12.6667L21.4037 11.505C20.8403 9.98167 20.5587 9.22 20.0037 8.665C19.447 8.10833 18.6853 7.82667 17.162 7.26333L16.0003 6.83333L17.162 6.40333C18.6853 5.84 19.447 5.55833 20.002 5.00333C20.5587 4.44667 20.8403 3.685 21.4037 2.16167L21.8337 1Z" stroke="#F9BAB7" stroke-width="1.5" stroke-linecap="round" stroke-linejoin="round"/>
</svg>
